<?xml version="1.0" standalone="no"?>
<!DOCTYPE svg PUBLIC "-//W3C//DTD SVG 20010904//EN"
 "http://www.w3.org/TR/2001/REC-SVG-20010904/DTD/svg10.dtd">
<svg version="1.0" xmlns="http://www.w3.org/2000/svg"
 width="240.000000pt" height="240.000000pt" viewBox="0 0 240.000000 240.000000"
 preserveAspectRatio="xMidYMid meet">
<metadata>
Created by potrace 1.14, written by Peter Selinger 2001-2017
</metadata>
<g transform="translate(0.000000,240.000000) scale(0.100000,-0.100000)"
fill="#000000" stroke="none">
<path d="M2277 1633 c-11 -10 -8 -38 5 -51 15 -15 48 3 48 27 0 24 -37 41 -53
24z m33 -29 c0 -8 -4 -12 -10 -9 -5 3 -10 10 -10 16 0 5 5 9 10 9 6 0 10 -7
10 -16z"/>
<path d="M2202 1578 c-16 -16 -15 -45 1 -51 17 -6 47 11 47 28 0 21 -34 37
-48 23z m24 -35 c-10 -10 -19 5 -10 18 6 11 8 11 12 0 2 -7 1 -15 -2 -18z"/>
<path d="M1990 1563 c-41 -13 -61 -29 -76 -61 -21 -45 -13 -97 23 -134 34 -36
76 -47 177 -47 56 0 82 -4 87 -14 6 -9 33 -13 101 -12 l93 0 0 30 c0 27 -3 30
-37 33 -26 2 -39 9 -43 23 -4 12 -16 19 -33 20 -15 0 -38 2 -51 3 -15 2 -25
-3 -28 -14 -4 -14 -18 -16 -97 -14 -105 2 -128 10 -145 53 -16 36 -1 68 34 77
45 11 74 -35 39 -61 -19 -13 -11 -55 10 -55 18 0 56 43 61 70 7 34 -22 80 -60
96 -19 8 -36 14 -37 13 -2 0 -10 -3 -18 -6z m78 -48 c12 -14 22 -34 22 -44 0
-25 -35 -68 -43 -54 -4 6 0 16 8 23 21 17 19 46 -5 70 -27 27 -62 25 -89 -4
-33 -35 -35 -69 -6 -104 31 -37 65 -46 168 -44 43 1 77 -3 77 -8 0 -13 -171
-13 -205 0 -42 16 -75 59 -75 97 0 89 92 132 148 68z m235 -153 c8 -16 19 -22
44 -22 21 0 33 -5 33 -14 0 -10 -19 -14 -80 -14 l-80 -1 0 33 c0 40 2 42 41
41 23 -1 35 -7 42 -23z"/>
<path d="M2280 1545 c0 -8 5 -15 10 -15 6 0 10 7 10 15 0 8 -4 15 -10 15 -5 0
-10 -7 -10 -15z"/>
<path d="M2236 1505 c-3 -9 0 -15 9 -15 16 0 20 16 6 24 -5 3 -11 -1 -15 -9z"/>
<path d="M2318 1506 c-10 -7 -14 -16 -10 -20 4 -4 7 -13 7 -19 0 -6 12 -12 27
-14 33 -2 47 35 21 55 -21 15 -24 15 -45 -2z"/>
<path d="M2047 1233 c-3 -15 3 -27 18 -37 20 -13 24 -12 39 5 21 25 8 52 -27
53 -19 1 -27 -4 -30 -21z"/>
<path d="M1990 1230 c0 -5 4 -10 9 -10 6 0 13 5 16 10 3 6 -1 10 -9 10 -9 0
-16 -4 -16 -10z"/>
<path d="M1926 1204 c-21 -20 -20 -31 2 -43 30 -16 63 24 39 48 -15 15 -23 14
-41 -5z m28 -25 c-3 -5 -10 -7 -15 -3 -5 3 -7 10 -3 15 3 5 10 7 15 3 5 -3 7
-10 3 -15z"/>
<path d="M165 1172 l-31 -3 -42 -172 c-23 -95 -42 -176 -42 -180 0 -5 19 -7
42 -5 l42 3 43 170 c23 94 43 173 43 176 0 10 -22 15 -55 11z"/>
<path d="M715 1172 c-38 -5 -61 -26 -75 -68 -10 -28 -17 -34 -40 -34 -20 0
-29 -6 -34 -22 -10 -39 -7 -48 19 -48 14 0 25 -1 25 -2 0 -2 -11 -45 -24 -95
l-24 -93 44 0 c48 0 42 -11 77 130 13 53 14 55 50 58 32 3 38 7 45 35 10 37 2
46 -35 39 -19 -4 -24 -1 -21 9 3 8 20 16 38 19 26 4 36 12 43 33 5 16 7 31 4
34 -8 7 -54 10 -92 5z"/>
<path d="M1990 1171 c0 -6 5 -13 10 -16 6 -3 10 1 10 9 0 9 -4 16 -10 16 -5 0
-10 -4 -10 -9z"/>
<path d="M242 958 c-18 -73 -32 -136 -32 -140 0 -5 18 -8 40 -8 44 0 38 -11
75 140 16 62 18 65 48 67 61 4 65 -5 39 -104 -12 -48 -22 -91 -22 -95 0 -5 18
-8 40 -8 44 0 40 -7 75 142 20 86 15 123 -17 132 -13 3 -66 6 -118 6 l-96 0
-32 -132z"/>
<path d="M874 1084 c-38 -9 -62 -47 -85 -136 -21 -82 -21 -88 -5 -112 16 -25
20 -26 114 -26 147 0 160 11 193 178 18 87 8 96 -109 99 -48 0 -97 -1 -108 -3z
m133 -78 c7 -7 -16 -96 -30 -113 -11 -14 -103 -18 -111 -5 -8 13 22 114 36
123 14 9 95 5 105 -5z"/>
<path d="M1188 1076 c-24 -18 -40 -55 -64 -151 -31 -120 -32 -117 18 -113 l42
3 22 88 c25 100 38 121 72 114 18 -3 26 1 33 20 18 49 14 54 -50 52 -32 -1
-65 -7 -73 -13z"/>
<path d="M1335 983 c-15 -60 -31 -123 -35 -140 l-8 -33 43 0 43 0 16 68 c36
144 33 138 66 140 16 1 30 -1 30 -6 0 -8 -34 -145 -46 -184 -4 -15 1 -18 35
-18 38 0 41 2 50 38 5 20 18 67 27 105 18 67 30 79 63 58 12 -8 11 -22 -8 -95
-11 -47 -21 -90 -21 -96 0 -5 18 -10 40 -10 44 0 36 -13 74 136 35 138 27 144
-185 144 l-157 0 -27 -107z"/>
<path d="M1807 1069 c-18 -13 -33 -42 -46 -87 -29 -98 -30 -132 -5 -156 20
-21 244 -24 244 -3 0 6 3 22 6 34 6 22 4 22 -87 25 -75 2 -94 6 -94 18 0 12
17 15 93 15 106 0 105 -1 120 84 14 79 -1 91 -117 91 -74 0 -93 -3 -114 -21z
m136 -58 c4 0 7 -8 7 -16 0 -12 -13 -15 -55 -15 -55 0 -65 6 -44 27 8 8 53 11
92 4z"/>
<path d="M2144 1080 c-31 -12 -49 -47 -73 -145 -12 -49 -24 -98 -27 -107 -5
-15 1 -18 39 -18 l45 0 11 48 c35 143 39 151 76 158 39 7 39 7 49 47 6 27 6
27 -46 26 -29 0 -62 -4 -74 -9z"/>
</g>
</svg>
